<?xml version="1.0" encoding="utf-8"?>
<!-- Generator: Adobe Illustrator 22.0.0, SVG Export Plug-In . SVG Version: 6.00 Build 0)  -->
<svg version="1.1" id="Слой_1" xmlns="http://www.w3.org/2000/svg" xmlns:xlink="http://www.w3.org/1999/xlink" x="0px" y="0px"
	 viewBox="0 0 293 298" style="enable-background:new 0 0 293 298;" xml:space="preserve">
<style type="text/css">
	.st0{fill:url(#SVGID_1_);}
	.st1{opacity:0.57;fill:url(#SVGID_2_);}
	.st2{opacity:0.57;fill:url(#SVGID_3_);}
	.st3{fill:url(#SVGID_4_);}
	.st4{opacity:0.52;fill:#510C48;}
	.st5{opacity:0.52;fill:#350F41;}
	.st6{opacity:0.52;fill:#801854;}
	.st7{fill:#AE1D58;}
	.st8{fill:url(#SVGID_5_);}
	.st9{fill:url(#SVGID_6_);}
	.st10{fill:url(#SVGID_7_);}
	.st11{fill:#7D1450;}
	.st12{fill:url(#SVGID_8_);}
	.st13{fill:#D8406B;}
	.st14{opacity:0.74;fill:#C52763;}
</style>
<g id="Планета">
	<radialGradient id="SVGID_1_" cx="144.3333" cy="129.3333" r="111.9127" gradientUnits="userSpaceOnUse">
		<stop  offset="0" style="stop-color:#750A40"/>
		<stop  offset="1" style="stop-color:#070535"/>
	</radialGradient>
	<circle class="st0" cx="147.5" cy="149.5" r="134.5"/>
	<linearGradient id="SVGID_2_" gradientUnits="userSpaceOnUse" x1="200.875" y1="140.0795" x2="231.7197" y2="140.0795">
		<stop  offset="0" style="stop-color:#3C0741"/>
		<stop  offset="1" style="stop-color:#8A1C63"/>
	</linearGradient>
	<path class="st1" d="M231.7,138.3c0,0-22.7-0.5-30.8,4.5c0,0,4.4-2.9,9.9-4.5c2.4-0.7,6.9-0.8,8.2-0.9c4.3-0.3,10.9,0.5,10.9,0.5
		L231.7,138.3z"/>
	<linearGradient id="SVGID_3_" gradientUnits="userSpaceOnUse" x1="56.1391" y1="195.5" x2="77.875" y2="195.5">
		<stop  offset="0" style="stop-color:#3C0741"/>
		<stop  offset="1" style="stop-color:#8A1C63"/>
	</linearGradient>
	<path class="st2" d="M59.7,203.7c0,0-2.7-10,18.2-18c0,0-12.6,3.4-18.4,10.6s-2.4,8.9-2.4,8.9L59.7,203.7z"/>
	<linearGradient id="SVGID_4_" gradientUnits="userSpaceOnUse" x1="143.3365" y1="146.2178" x2="133.281" y2="92.4032">
		<stop  offset="0" style="stop-color:#3C0741"/>
		<stop  offset="1" style="stop-color:#8A1C63"/>
	</linearGradient>
	<circle class="st3" cx="147.5" cy="168.5" r="73.5"/>
	<g>
		<circle class="st4" cx="177.9" cy="146.9" r="23.5"/>
		<circle class="st5" cx="177.9" cy="146.9" r="20"/>
		<circle class="st6" cx="177.9" cy="146.9" r="17"/>
		<circle class="st7" cx="177.9" cy="146.9" r="14"/>
	</g>
	<linearGradient id="SVGID_5_" gradientUnits="userSpaceOnUse" x1="147.3993" y1="147.3333" x2="147.3993" y2="166.6667">
		<stop  offset="0" style="stop-color:#DC015F"/>
		<stop  offset="1" style="stop-color:#FA393C"/>
	</linearGradient>
	<path class="st8" d="M220.8,173.7C179.6,150.4,151,136,122,162c-28.5,25.5-47.1,1.4-47.7,0.5c-0.2,2-0.3,4-0.3,6
		c0,40.6,32.9,73.5,73.5,73.5C186.4,242,218.1,211.8,220.8,173.7z"/>
	<linearGradient id="SVGID_6_" gradientUnits="userSpaceOnUse" x1="148.4895" y1="176.1116" x2="150.4895" y2="145.445">
		<stop  offset="0" style="stop-color:#F52162"/>
		<stop  offset="1" style="stop-color:#FF625F"/>
	</linearGradient>
	<path class="st9" d="M75.8,184.5c7.3,32.9,36.6,57.5,71.7,57.5c40.6,0,73.5-32.9,73.5-73.5c0-8.2-1.4-16.1-3.9-23.5
		c-31.8-17.9-53.1,12-53.1,12C120.4,202.6,76.5,184.8,75.8,184.5z"/>
	<linearGradient id="SVGID_7_" gradientUnits="userSpaceOnUse" x1="160.5146" y1="172.5699" x2="133.8479" y2="251.2366">
		<stop  offset="0" style="stop-color:#FF585F"/>
		<stop  offset="1" style="stop-color:#AB2D62"/>
	</linearGradient>
	<path class="st10" d="M85.4,207.7c13,20.6,36,34.3,62.1,34.3c40.6,0,73.5-32.9,73.5-73.5c0-1,0-2-0.1-3C192,153.3,173,180,173,180
		C132,222.9,90.8,209.7,85.4,207.7z"/>
	<g>
		<g>
			<ellipse transform="matrix(0.5 -0.866 0.866 0.5 -66.9493 146.0404)" class="st11" cx="93" cy="131" rx="4" ry="3"/>
			<ellipse class="st11" cx="151" cy="104.5" rx="8" ry="3.5"/>
			<ellipse transform="matrix(0.9037 -0.4281 0.4281 0.9037 -35.9712 60.0328)" class="st11" cx="115.5" cy="110" rx="4.5" ry="3"/>
			
				<ellipse transform="matrix(0.7071 -0.7071 0.7071 0.7071 -29.9206 174.7652)" class="st11" cx="196" cy="123.5" rx="3.5" ry="6"/>
		</g>
	</g>
	<linearGradient id="SVGID_8_" gradientUnits="userSpaceOnUse" x1="47.5299" y1="220.1352" x2="259.2666" y2="143.1998">
		<stop  offset="0" style="stop-color:#600E55"/>
		<stop  offset="0.3463" style="stop-color:#DB0061"/>
		<stop  offset="0.6244" style="stop-color:#DB0061"/>
		<stop  offset="1" style="stop-color:#600E55"/>
	</linearGradient>
	<path class="st12" d="M244.9,142.4c-1.7-5-14.8-6-30.6-4.6c16.7-0.2,21.7,2.2,22.7,3.4c2.4,2.9-0.5,22.4-65.6,49.1
		C122.3,210.4,57.9,213.9,58.7,201c0.1-1.4,0.3-2.8,0.8-4.7c-4.4,4.3-6.4,8-5.4,10.9c3.7,11,61.9,9.5,119.3-11
		C225.7,177.4,248.6,153.4,244.9,142.4z"/>
	<path class="st13" d="M219,185.2c0,0-18.7,55.1-87.8,55c5.2,1.2,10.7,1.8,16.3,1.8C182.3,242,211.5,217.7,219,185.2L219,185.2z"/>
	<path class="st14" d="M177,204c-27.4,8.8-62.2,11.9-85,13c1.8,1.6,8.2,7.5,10.2,9C124,224.3,151,215,177,204"/>
</g>
</svg>
