<?xml version="1.0" encoding="utf-8"?>
<!-- Generator: Adobe Illustrator 22.0.0, SVG Export Plug-In . SVG Version: 6.00 Build 0)  -->
<svg version="1.1" id="Слой_1" xmlns="http://www.w3.org/2000/svg" xmlns:xlink="http://www.w3.org/1999/xlink" x="0px" y="0px"
	 viewBox="0 0 700 310" style="enable-background:new 0 0 700 310;" xml:space="preserve">
<style type="text/css">
	.st0{fill:url(#SVGID_1_);}
	.st1{fill:url(#SVGID_2_);}
	.st2{fill:url(#SVGID_3_);}
	.st3{fill:url(#SVGID_4_);}
	.st4{fill:url(#SVGID_5_);}
	.st5{fill:url(#SVGID_6_);}
	.st6{fill:url(#SVGID_7_);}
	.st7{fill:url(#SVGID_8_);}
	.st8{fill:url(#SVGID_9_);}
	.st9{fill:url(#SVGID_10_);}
	.st10{fill:url(#SVGID_11_);}
	.st11{fill:url(#SVGID_12_);}
	.st12{fill:url(#SVGID_13_);}
	.st13{fill:url(#SVGID_14_);}
	.st14{fill:url(#SVGID_15_);}
</style>
<g>
	<linearGradient id="SVGID_1_" gradientUnits="userSpaceOnUse" x1="127.0847" y1="176.6443" x2="146.959" y2="176.6443">
		<stop  offset="0" style="stop-color:#FF585F"/>
		<stop  offset="1" style="stop-color:#AB2D62"/>
	</linearGradient>
	<path class="st0" d="M146.6,176.1c-5.1,0-9.3-3.8-9.9-8.8c-0.6,4.9-4.6,8.6-9.6,8.8v0c5.5,0,9.9,4.4,9.9,9.9c0-5.5,4.4-9.9,9.9-9.9
		v0C146.8,176.1,146.7,176.1,146.6,176.1z"/>
	<linearGradient id="SVGID_2_" gradientUnits="userSpaceOnUse" x1="4.9181" y1="284.421" x2="12.9224" y2="284.421">
		<stop  offset="0" style="stop-color:#FF585F"/>
		<stop  offset="1" style="stop-color:#AB2D62"/>
	</linearGradient>
	<path class="st1" d="M12.8,284.2c-2.1,0-3.7-1.5-4-3.5c-0.2,2-1.9,3.5-3.9,3.5v0c2.2,0,4,1.8,4,4c0-2.2,1.8-4,4-4v0
		C12.9,284.2,12.8,284.2,12.8,284.2z"/>
	<linearGradient id="SVGID_3_" gradientUnits="userSpaceOnUse" x1="209" y1="227.9284" x2="217.0043" y2="227.9284">
		<stop  offset="0" style="stop-color:#FF585F"/>
		<stop  offset="1" style="stop-color:#AB2D62"/>
	</linearGradient>
	<path class="st2" d="M216.8,227.7c-2.1,0-3.7-1.5-4-3.5c-0.2,2-1.9,3.5-3.9,3.5v0c2.2,0,4,1.8,4,4c0-2.2,1.8-4,4-4v0
		C217,227.7,216.9,227.7,216.8,227.7z"/>
	<linearGradient id="SVGID_4_" gradientUnits="userSpaceOnUse" x1="576.9201" y1="50.232" x2="584.9244" y2="50.232">
		<stop  offset="0" style="stop-color:#FF585F"/>
		<stop  offset="1" style="stop-color:#AB2D62"/>
	</linearGradient>
	<path class="st3" d="M584.8,50c-2.1,0-3.7-1.5-4-3.5c-0.2,2-1.9,3.5-3.9,3.5v0c2.2,0,4,1.8,4,4c0-2.2,1.8-4,4-4v0
		C584.9,50,584.8,50,584.8,50z"/>
	<linearGradient id="SVGID_5_" gradientUnits="userSpaceOnUse" x1="349.875" y1="293.4932" x2="357.8793" y2="293.4932">
		<stop  offset="0" style="stop-color:#FF585F"/>
		<stop  offset="1" style="stop-color:#AB2D62"/>
	</linearGradient>
	<path class="st4" d="M357.7,293.3c-2.1,0-3.7-1.5-4-3.5c-0.2,2-1.9,3.5-3.9,3.5v0c2.2,0,4,1.8,4,4c0-2.2,1.8-4,4-4v0
		C357.8,293.3,357.8,293.3,357.7,293.3z"/>
	<linearGradient id="SVGID_6_" gradientUnits="userSpaceOnUse" x1="562.7197" y1="213.2887" x2="570.724" y2="213.2887">
		<stop  offset="0" style="stop-color:#FF585F"/>
		<stop  offset="1" style="stop-color:#AB2D62"/>
	</linearGradient>
	<path class="st5" d="M570.6,213.1c-2.1,0-3.7-1.5-4-3.5c-0.2,2-1.9,3.5-3.9,3.5v0c2.2,0,4,1.8,4,4c0-2.2,1.8-4,4-4v0
		C570.7,213.1,570.6,213.1,570.6,213.1z"/>
	<linearGradient id="SVGID_7_" gradientUnits="userSpaceOnUse" x1="463.1714" y1="19.0696" x2="477.3505" y2="19.0696">
		<stop  offset="0" style="stop-color:#FF585F"/>
		<stop  offset="1" style="stop-color:#AB2D62"/>
	</linearGradient>
	<path class="st6" d="M477.1,18.7c-3.6,0-6.6-2.7-7-6.3c-0.4,3.5-3.3,6.2-6.9,6.3v0c3.9,0,7.1,3.2,7.1,7.1c0-3.9,3.2-7.1,7.1-7.1v0
		C477.3,18.7,477.2,18.7,477.1,18.7z"/>
	<linearGradient id="SVGID_8_" gradientUnits="userSpaceOnUse" x1="463.1714" y1="264.2765" x2="477.3505" y2="264.2765">
		<stop  offset="0" style="stop-color:#FF585F"/>
		<stop  offset="1" style="stop-color:#AB2D62"/>
	</linearGradient>
	<path class="st7" d="M477.1,263.9c-3.6,0-6.6-2.7-7-6.3c-0.4,3.5-3.3,6.2-6.9,6.3v0c3.9,0,7.1,3.2,7.1,7.1c0-3.9,3.2-7.1,7.1-7.1v0
		C477.3,263.9,477.2,263.9,477.1,263.9z"/>
	<linearGradient id="SVGID_9_" gradientUnits="userSpaceOnUse" x1="631" y1="73.4807" x2="655.1638" y2="73.4807">
		<stop  offset="0" style="stop-color:#FF585F"/>
		<stop  offset="1" style="stop-color:#AB2D62"/>
	</linearGradient>
	<path class="st8" d="M654.7,72.8c-6.2,0-11.3-4.7-12-10.7C642,68,637.1,72.6,631,72.8v0c6.7,0,12.1,5.4,12.1,12.1
		c0-6.7,5.4-12.1,12.1-12.1v0C655,72.8,654.9,72.8,654.7,72.8z"/>
	<linearGradient id="SVGID_10_" gradientUnits="userSpaceOnUse" x1="236.0629" y1="293.4932" x2="263.3393" y2="293.4932">
		<stop  offset="0" style="stop-color:#FF585F"/>
		<stop  offset="1" style="stop-color:#AB2D62"/>
	</linearGradient>
	<path class="st9" d="M262.8,292.7c-7,0-12.8-5.3-13.5-12c-0.8,6.7-6.4,11.9-13.2,12v0c7.5,0,13.6,6.1,13.6,13.6
		c0-7.5,6.1-13.6,13.6-13.6v0C263.2,292.7,263,292.7,262.8,292.7z"/>
	<linearGradient id="SVGID_11_" gradientUnits="userSpaceOnUse" x1="682.3096" y1="280.6977" x2="695.6975" y2="280.6977">
		<stop  offset="0" style="stop-color:#FF585F"/>
		<stop  offset="1" style="stop-color:#AB2D62"/>
	</linearGradient>
	<path class="st10" d="M695.4,280.3c-3.4,0-6.3-2.6-6.6-5.9c-0.4,3.3-3.1,5.8-6.5,5.9v0c3.7,0,6.7,3,6.7,6.7c0-3.7,3-6.7,6.7-6.7v0
		C695.6,280.3,695.5,280.3,695.4,280.3z"/>
	<linearGradient id="SVGID_12_" gradientUnits="userSpaceOnUse" x1="228.1391" y1="13.3427" x2="246" y2="13.3427">
		<stop  offset="0" style="stop-color:#FF585F"/>
		<stop  offset="1" style="stop-color:#AB2D62"/>
	</linearGradient>
	<path class="st11" d="M245.7,12.8c-4.6,0-8.3-3.4-8.9-7.9c-0.5,4.4-4.2,7.8-8.6,7.9v0c4.9,0,8.9,4,8.9,8.9c0-4.9,4-8.9,8.9-8.9v0
		C245.9,12.8,245.8,12.8,245.7,12.8z"/>
	<linearGradient id="SVGID_13_" gradientUnits="userSpaceOnUse" x1="24.7924" y1="12.3949" x2="44.6667" y2="12.3949">
		<stop  offset="0" style="stop-color:#FF585F"/>
		<stop  offset="1" style="stop-color:#AB2D62"/>
	</linearGradient>
	<path class="st12" d="M44.3,11.8C39.2,11.8,35,8,34.4,3c-0.6,4.9-4.6,8.6-9.6,8.8v0c5.5,0,9.9,4.4,9.9,9.9c0-5.5,4.4-9.9,9.9-9.9v0
		C44.5,11.8,44.4,11.8,44.3,11.8z"/>
	<linearGradient id="SVGID_14_" gradientUnits="userSpaceOnUse" x1="27.5558" y1="134.1016" x2="39.4142" y2="134.1016">
		<stop  offset="0" style="stop-color:#FF585F"/>
		<stop  offset="1" style="stop-color:#AB2D62"/>
	</linearGradient>
	<path class="st13" d="M39.2,133.8c-3,0-5.5-2.3-5.9-5.2c-0.3,2.9-2.8,5.2-5.7,5.2v0c3.3,0,5.9,2.7,5.9,5.9c0-3.3,2.7-5.9,5.9-5.9v0
		C39.3,133.8,39.3,133.8,39.2,133.8z"/>
	<linearGradient id="SVGID_15_" gradientUnits="userSpaceOnUse" x1="473.1086" y1="126.2059" x2="511.3987" y2="126.2059">
		<stop  offset="0" style="stop-color:#FF585F"/>
		<stop  offset="1" style="stop-color:#AB2D62"/>
	</linearGradient>
	<path class="st14" d="M510.7,125.1c-9.8,0-17.9-7.4-19-16.9c-1.1,9.4-8.9,16.7-18.5,16.9v0c10.6,0,19.1,8.6,19.1,19.1
		c0-10.6,8.6-19.1,19.1-19.1v0C511.2,125.1,510.9,125.1,510.7,125.1z"/>
</g>
</svg>
